<?xml version="1.0" encoding="UTF-8"?>
<svg id="Ebene_2" xmlns="http://www.w3.org/2000/svg" viewBox="0 0 356.052 465.436" fill="currentColor">
    <g id="Ebene_10">
        <path class="cls-1"
              d="M110.797,325.806c8.87-4.02,17.89-7.36,27.3-7.81v-11.91c-1.59-.13-3.17-.22-4.74-.12-6.55.43-13.07,2.48-19.44,4.34-9.99,2.93-19.27,6.95-25.03,16.61-1.9,3.12-5.34,5.34-8.53,8.42-12.17-19.91-20.3-40.79-27.32-62.63-1.26,5.98-3.15,11.89-3.69,17.94-1.43,16.9-2.4,33.88-3.4,50.81-.68,11.46-2.44,22.71-6.84,33.42.25.35.54.68.82,1.03,3.69-2,7.41-3.97,11.35-6.08.68,16.54,0,33.77,17.23,44.9v-17.29c.36-.15.68-.29,1.04-.43,4.51,19.98,16.33,33.59,35.49,41.68-1.19-4.62-2.22-8.66-3.26-12.71.32-.14.64-.29.93-.43,1.04,1.54,2.04,3.11,3.15,4.58,8.24,10.82,19.63,16.74,32.24,20.48v-105.74c-2.52.17-5.03.65-7.57,1.43-5.44,1.68-10.95,3.26-16.54,4.51-5.95,1.33-8.34-.14-10.39-5.98-.75-2.15-1.14-4.4-1.64-6.48.68-5.98,3.9-10.32,8.84-12.54ZM233.847,324.446c-.43-15.61-1-31.15-5.19-46.34-.36-1.39-.75-2.75-1.18-4.11-.08-.26-.36-.4-.76-.86-3.83,10.74-7.16,21.45-11.42,31.76-4.26,10.24-9.42,20.09-14.75,31.3-4.62-5.01-8.42-8.63-11.61-12.75-3.83-4.94-8.45-8.34-14.36-10.31-7.05-2.29-13.96-4.91-20.98-7.24-1.58-.5-3.55-.82-5.05-.32-.82.27-1.64.46-2.45.59v12.19c2.5.35,5.03.93,7.6,1.8,3.66,1.21,7.49,1.89,11.14,3.18,8.78,3.15,17.37,10.64,11.64,22.74-1.86,3.87-4.37,6.02-8.74,4.95-5.98-1.51-11.96-2.94-17.8-4.73-1.28-.39-2.56-.71-3.84-.95v104.18c12.99-4.71,24.47-11.55,32.46-23.91-.4,2.08-.72,4.15-1.22,6.2-.5,2.04-1.25,4.01-2.11,6.8,9.7-3.51,17.08-9.06,23.38-16.15,6.38-7.2,10.1-15.76,13.22-24.96v16.83c5.55-2.4,9.38-6.34,11.56-11.42,2.19-5.2,3.84-10.78,4.8-16.33,1-5.45.86-11.11,1.26-17.09,1.89,1.36,3.47,2.69,5.3,3.69,1.82,1.01,3.9,1.65,5.8,2.4.36-.5.68-.79.64-.93-6.52-16.11-6.91-33.2-7.34-50.21ZM111.737,107.716c-5.11,0-9.29,4.27-9.25,9.47.03,5.18,4.27,9.44,9.36,9.4,5.14-.03,9.47-4.3,9.48-9.35.01-5.26-4.28-9.52-9.59-9.52Z"/>
        <path class="cls-1"
              d="M138.097,232.506c-2.93.2-5.87.72-8.81,1.55-.35-.74-.63-1.32-.9-1.9-8.47-18.21-31.75-24.8-48.75-13.8-7.04,4.55-11.69,10.85-13.93,18.81-.45,1.6-4.82,2.35-6.75,2.04v5.67c1.6-.02,5.65,1.14,5.55,2.5-.07.96.03,1.95.17,2.91,2.67,17.61,17.46,29.5,35.56,28.61,16.16-.79,30.16-14.34,31.02-30.21.2-3.66-.25-7.35-.41-11.28,2.4-.62,4.82-1.04,7.25-1.25v-3.65ZM73.107,233.646c5.94-9.08,13.76-14.81,24.17-15.2,11.32-.43,19.79,5.47,26.27,15.2-16.83-12.94-33.59-12.91-50.44,0Z"/>
        <path class="cls-1"
              d="M202.903,238.777c4.752,8.216,9.315,16.107,14.048,24.291h-28.041c4.664-8.097,9.205-15.98,13.993-24.291Z"/>
        <path class="cls-1"
              d="M154.946,263.114c4.712-8.18,9.263-16.08,14.02-24.339,4.737,8.195,9.327,16.135,14.07,24.339h-28.09Z"/>
        <path class="cls-1"
              d="M172.058,233.507c4.658-8.064,9.179-15.891,13.89-24.047,4.709,8.133,9.236,15.953,13.922,24.047h-27.813Z"/>
        <path class="cls-1"
              d="M172.049,237.501h27.766c-4.642,8.066-9.133,15.869-13.852,24.07-4.72-8.165-9.248-15.998-13.914-24.07Z"/>
        <path class="cls-1"
              d="M204.915,236.499c4.396-2.552,8.542-4.959,12.933-7.508v29.888c-4.463-7.723-8.614-14.906-12.933-22.38Z"/>
        <path class="cls-1"
              d="M187.594,281.611c0-4.937-.032-9.374.055-13.809.008-.395.778-1.11,1.2-1.114,7.85-.067,15.7-.05,23.743.461-8.189,4.738-16.378,9.475-24.997,14.462Z"/>
        <path class="cls-1"
              d="M191.247,211.101c8.341,4.813,16.681,9.626,25.296,14.596-4.405,2.572-8.561,4.999-12.984,7.582-4.252-7.339-8.445-14.578-12.638-21.816.109-.121.218-.242.327-.363Z"/>
        <path class="cls-1"
              d="M159.419,266.699c1.602,0,3.203,0,4.805,0,5.942,0,11.884.006,17.827-.001,1.079-.001,2.071-.107,2.044,1.529-.072,4.223-.024,8.448-.024,13.197-8.477-4.88-16.617-9.566-24.756-14.252.035-.158.07-.315.105-.473Z"/>
        <path class="cls-1"
              d="M168.376,233.289c-4.376-2.561-8.464-4.954-12.942-7.575,8.616-4.96,16.903-9.73,25.191-14.5.103.105.206.211.309.316-4.141,7.175-8.282,14.349-12.558,21.759Z"/>
        <path class="cls-1"
              d="M153.878,257.678v-28.967c4.379,2.523,8.467,4.877,12.842,7.398-4.209,7.314-8.342,14.495-12.474,21.676-.123-.036-.245-.071-.368-.107Z"/>
        <path class="cls-1"
              d="M186.217,99.196c-6.72,2.87-13.31,2.84-19.97-.19.37-.52.69-.97,1.01-1.42,2.12-2.92,4.25-5.84,6.36-8.77.27-.38.53-.47,1-.44h.18c.98.04,1.98-.02,2.97-.02.23.01.58.04.69.2.08.1.15.21.23.31,2.5,3.4,4.98,6.82,7.53,10.33Z"/>
        <path class="cls-1"
              d="M172.027,55.656v-.75c-7.15,1.55-12.47,5.43-16.13,11.73.17.08.22.12.28.14,3.8,1.24,7.59,2.48,11.39,3.69.2.06.53-.08.73-.22,1.07-.74,2.09-1.54,3.18-2.23.39-.25.56-.45.56-.91-.02-3.82-.01-7.63-.01-11.45ZM180.747,54.886c-.03.17-.06.26-.06.35,0,4.12-.01,8.25.02,12.38,0,.22.24.48.44.64.9.73,1.87,1.39,2.73,2.16.37.32.63.43,1.1.28,3.41-1.13,6.82-2.23,10.23-3.34.59-.19,1.17-.39,1.83-.61-3.7-6.43-9.11-10.33-16.29-11.86ZM180.747,54.886c-.03.17-.06.26-.06.35,0,4.12-.01,8.25.02,12.38,0,.22.24.48.44.64.9.73,1.87,1.39,2.73,2.16.37.32.63.43,1.1.28,3.41-1.13,6.82-2.23,10.23-3.34.59-.19,1.17-.39,1.83-.61-3.7-6.43-9.11-10.33-16.29-11.86ZM172.027,55.656v-.75c-7.15,1.55-12.47,5.43-16.13,11.73.17.08.22.12.28.14,3.8,1.24,7.59,2.48,11.39,3.69.2.06.53-.08.73-.22,1.07-.74,2.09-1.54,3.18-2.23.39-.25.56-.45.56-.91-.02-3.82-.01-7.63-.01-11.45ZM172.027,55.656v-.75c-7.15,1.55-12.47,5.43-16.13,11.73.17.08.22.12.28.14,3.8,1.24,7.59,2.48,11.39,3.69.2.06.53-.08.73-.22,1.07-.74,2.09-1.54,3.18-2.23.39-.25.56-.45.56-.91-.02-3.82-.01-7.63-.01-11.45ZM180.747,54.886c-.03.17-.06.26-.06.35,0,4.12-.01,8.25.02,12.38,0,.22.24.48.44.64.9.73,1.87,1.39,2.73,2.16.37.32.63.43,1.1.28,3.41-1.13,6.82-2.23,10.23-3.34.59-.19,1.17-.39,1.83-.61-3.7-6.43-9.11-10.33-16.29-11.86ZM180.747,54.886c-.03.17-.06.26-.06.35,0,4.12-.01,8.25.02,12.38,0,.22.24.48.44.64.9.73,1.87,1.39,2.73,2.16.37.32.63.43,1.1.28,3.41-1.13,6.82-2.23,10.23-3.34.59-.19,1.17-.39,1.83-.61-3.7-6.43-9.11-10.33-16.29-11.86ZM172.027,55.656v-.75c-7.15,1.55-12.47,5.43-16.13,11.73.17.08.22.12.28.14,3.8,1.24,7.59,2.48,11.39,3.69.2.06.53-.08.73-.22,1.07-.74,2.09-1.54,3.18-2.23.39-.25.56-.45.56-.91-.02-3.82-.01-7.63-.01-11.45ZM172.027,55.656v-.75c-7.15,1.55-12.47,5.43-16.13,11.73.17.08.22.12.28.14,3.8,1.24,7.59,2.48,11.39,3.69.2.06.53-.08.73-.22,1.07-.74,2.09-1.54,3.18-2.23.39-.25.56-.45.56-.91-.02-3.82-.01-7.63-.01-11.45ZM180.747,54.886c-.03.17-.06.26-.06.35,0,4.12-.01,8.25.02,12.38,0,.22.24.48.44.64.9.73,1.87,1.39,2.73,2.16.37.32.63.43,1.1.28,3.41-1.13,6.82-2.23,10.23-3.34.59-.19,1.17-.39,1.83-.61-3.7-6.43-9.11-10.33-16.29-11.86ZM180.747,54.886c-.03.17-.06.26-.06.35,0,4.12-.01,8.25.02,12.38,0,.22.24.48.44.64.9.73,1.87,1.39,2.73,2.16.37.32.63.43,1.1.28,3.41-1.13,6.82-2.23,10.23-3.34.59-.19,1.17-.39,1.83-.61-3.7-6.43-9.11-10.33-16.29-11.86ZM172.027,55.656v-.75c-7.15,1.55-12.47,5.43-16.13,11.73.17.08.22.12.28.14,3.8,1.24,7.59,2.48,11.39,3.69.2.06.53-.08.73-.22,1.07-.74,2.09-1.54,3.18-2.23.39-.25.56-.45.56-.91-.02-3.82-.01-7.63-.01-11.45ZM172.027,55.656v-.75c-7.15,1.55-12.47,5.43-16.13,11.73.17.08.22.12.28.14,3.8,1.24,7.59,2.48,11.39,3.69.2.06.53-.08.73-.22,1.07-.74,2.09-1.54,3.18-2.23.39-.25.56-.45.56-.91-.02-3.82-.01-7.63-.01-11.45ZM180.747,54.886c-.03.17-.06.26-.06.35,0,4.12-.01,8.25.02,12.38,0,.22.24.48.44.64.9.73,1.87,1.39,2.73,2.16.37.32.63.43,1.1.28,3.41-1.13,6.82-2.23,10.23-3.34.59-.19,1.17-.39,1.83-.61-3.7-6.43-9.11-10.33-16.29-11.86ZM180.747,54.886c-.03.17-.06.26-.06.35,0,4.12-.01,8.25.02,12.38,0,.22.24.48.44.64.9.73,1.87,1.39,2.73,2.16.37.32.63.43,1.1.28,3.41-1.13,6.82-2.23,10.23-3.34.59-.19,1.17-.39,1.83-.61-3.7-6.43-9.11-10.33-16.29-11.86ZM172.027,55.656v-.75c-7.15,1.55-12.47,5.43-16.13,11.73.17.08.22.12.28.14,3.8,1.24,7.59,2.48,11.39,3.69.2.06.53-.08.73-.22,1.07-.74,2.09-1.54,3.18-2.23.39-.25.56-.45.56-.91-.02-3.82-.01-7.63-.01-11.45ZM172.027,55.656v-.75c-7.15,1.55-12.47,5.43-16.13,11.73.17.08.22.12.28.14,3.8,1.24,7.59,2.48,11.39,3.69.2.06.53-.08.73-.22,1.07-.74,2.09-1.54,3.18-2.23.39-.25.56-.45.56-.91-.02-3.82-.01-7.63-.01-11.45ZM180.747,54.886c-.03.17-.06.26-.06.35,0,4.12-.01,8.25.02,12.38,0,.22.24.48.44.64.9.73,1.87,1.39,2.73,2.16.37.32.63.43,1.1.28,3.41-1.13,6.82-2.23,10.23-3.34.59-.19,1.17-.39,1.83-.61-3.7-6.43-9.11-10.33-16.29-11.86ZM180.747,54.886c-.03.17-.06.26-.06.35,0,4.12-.01,8.25.02,12.38,0,.22.24.48.44.64.9.73,1.87,1.39,2.73,2.16.37.32.63.43,1.1.28,3.41-1.13,6.82-2.23,10.23-3.34.59-.19,1.17-.39,1.83-.61-3.7-6.43-9.11-10.33-16.29-11.86ZM172.027,55.656v-.75c-7.15,1.55-12.47,5.43-16.13,11.73.17.08.22.12.28.14,3.8,1.24,7.59,2.48,11.39,3.69.2.06.53-.08.73-.22,1.07-.74,2.09-1.54,3.18-2.23.39-.25.56-.45.56-.91-.02-3.82-.01-7.63-.01-11.45ZM172.027,55.656v-.75c-7.15,1.55-12.47,5.43-16.13,11.73.17.08.22.12.28.14,3.8,1.24,7.59,2.48,11.39,3.69.2.06.53-.08.73-.22,1.07-.74,2.09-1.54,3.18-2.23.39-.25.56-.45.56-.91-.02-3.82-.01-7.63-.01-11.45ZM180.747,54.886c-.03.17-.06.26-.06.35,0,4.12-.01,8.25.02,12.38,0,.22.24.48.44.64.9.73,1.87,1.39,2.73,2.16.37.32.63.43,1.1.28,3.41-1.13,6.82-2.23,10.23-3.34.59-.19,1.17-.39,1.83-.61-3.7-6.43-9.11-10.33-16.29-11.86ZM180.747,54.886c-.03.17-.06.26-.06.35,0,4.12-.01,8.25.02,12.38,0,.22.24.48.44.64.9.73,1.87,1.39,2.73,2.16.37.32.63.43,1.1.28,3.41-1.13,6.82-2.23,10.23-3.34.59-.19,1.17-.39,1.83-.61-3.7-6.43-9.11-10.33-16.29-11.86ZM172.027,55.656v-.75c-7.15,1.55-12.47,5.43-16.13,11.73.17.08.22.12.28.14,3.8,1.24,7.59,2.48,11.39,3.69.2.06.53-.08.73-.22,1.07-.74,2.09-1.54,3.18-2.23.39-.25.56-.45.56-.91-.02-3.82-.01-7.63-.01-11.45ZM172.027,55.656v-.75c-7.15,1.55-12.47,5.43-16.13,11.73.17.08.22.12.28.14,3.8,1.24,7.59,2.48,11.39,3.69.2.06.53-.08.73-.22,1.07-.74,2.09-1.54,3.18-2.23.39-.25.56-.45.56-.91-.02-3.82-.01-7.63-.01-11.45ZM180.747,54.886c-.03.17-.06.26-.06.35,0,4.12-.01,8.25.02,12.38,0,.22.24.48.44.64.9.73,1.87,1.39,2.73,2.16.37.32.63.43,1.1.28,3.41-1.13,6.82-2.23,10.23-3.34.59-.19,1.17-.39,1.83-.61-3.7-6.43-9.11-10.33-16.29-11.86ZM180.747,54.886c-.03.17-.06.26-.06.35,0,4.12-.01,8.25.02,12.38,0,.22.24.48.44.64.9.73,1.87,1.39,2.73,2.16.37.32.63.43,1.1.28,3.41-1.13,6.82-2.23,10.23-3.34.59-.19,1.17-.39,1.83-.61-3.7-6.43-9.11-10.33-16.29-11.86ZM172.027,55.656v-.75c-7.15,1.55-12.47,5.43-16.13,11.73.17.08.22.12.28.14,3.8,1.24,7.59,2.48,11.39,3.69.2.06.53-.08.73-.22,1.07-.74,2.09-1.54,3.18-2.23.39-.25.56-.45.56-.91-.02-3.82-.01-7.63-.01-11.45ZM172.027,55.656v-.75c-7.15,1.55-12.47,5.43-16.13,11.73.17.08.22.12.28.14,3.8,1.24,7.59,2.48,11.39,3.69.2.06.53-.08.73-.22,1.07-.74,2.09-1.54,3.18-2.23.39-.25.56-.45.56-.91-.02-3.82-.01-7.63-.01-11.45ZM180.747,54.886c-.03.17-.06.26-.06.35,0,4.12-.01,8.25.02,12.38,0,.22.24.48.44.64.9.73,1.87,1.39,2.73,2.16.37.32.63.43,1.1.28,3.41-1.13,6.82-2.23,10.23-3.34.59-.19,1.17-.39,1.83-.61-3.7-6.43-9.11-10.33-16.29-11.86ZM180.747,54.886c-.03.17-.06.26-.06.35,0,4.12-.01,8.25.02,12.38,0,.22.24.48.44.64.9.73,1.87,1.39,2.73,2.16.37.32.63.43,1.1.28,3.41-1.13,6.82-2.23,10.23-3.34.59-.19,1.17-.39,1.83-.61-3.7-6.43-9.11-10.33-16.29-11.86ZM172.027,55.656v-.75c-7.15,1.55-12.47,5.43-16.13,11.73.17.08.22.12.28.14,3.8,1.24,7.59,2.48,11.39,3.69.2.06.53-.08.73-.22,1.07-.74,2.09-1.54,3.18-2.23.39-.25.56-.45.56-.91-.02-3.82-.01-7.63-.01-11.45ZM172.027,55.656v-.75c-7.15,1.55-12.47,5.43-16.13,11.73.17.08.22.12.28.14,3.8,1.24,7.59,2.48,11.39,3.69.2.06.53-.08.73-.22,1.07-.74,2.09-1.54,3.18-2.23.39-.25.56-.45.56-.91-.02-3.82-.01-7.63-.01-11.45ZM180.747,54.886c-.03.17-.06.26-.06.35,0,4.12-.01,8.25.02,12.38,0,.22.24.48.44.64.9.73,1.87,1.39,2.73,2.16.37.32.63.43,1.1.28,3.41-1.13,6.82-2.23,10.23-3.34.59-.19,1.17-.39,1.83-.61-3.7-6.43-9.11-10.33-16.29-11.86ZM180.747,54.886c-.03.17-.06.26-.06.35,0,4.12-.01,8.25.02,12.38,0,.22.24.48.44.64.9.73,1.87,1.39,2.73,2.16.37.32.63.43,1.1.28,3.41-1.13,6.82-2.23,10.23-3.34.59-.19,1.17-.39,1.83-.61-3.7-6.43-9.11-10.33-16.29-11.86ZM172.027,55.656v-.75c-7.15,1.55-12.47,5.43-16.13,11.73.17.08.22.12.28.14,3.8,1.24,7.59,2.48,11.39,3.69.2.06.53-.08.73-.22,1.07-.74,2.09-1.54,3.18-2.23.39-.25.56-.45.56-.91-.02-3.82-.01-7.63-.01-11.45ZM172.027,55.656v-.75c-7.15,1.55-12.47,5.43-16.13,11.73.17.08.22.12.28.14,3.8,1.24,7.59,2.48,11.39,3.69.2.06.53-.08.73-.22,1.07-.74,2.09-1.54,3.18-2.23.39-.25.56-.45.56-.91-.02-3.82-.01-7.63-.01-11.45ZM180.747,54.886c-.03.17-.06.26-.06.35,0,4.12-.01,8.25.02,12.38,0,.22.24.48.44.64.9.73,1.87,1.39,2.73,2.16.37.32.63.43,1.1.28,3.41-1.13,6.82-2.23,10.23-3.34.59-.19,1.17-.39,1.83-.61-3.7-6.43-9.11-10.33-16.29-11.86ZM172.027,55.656v-.75c-7.15,1.55-12.47,5.43-16.13,11.73.17.08.22.12.28.14,3.8,1.24,7.59,2.48,11.39,3.69.2.06.53-.08.73-.22,1.07-.74,2.09-1.54,3.18-2.23.39-.25.56-.45.56-.91-.02-3.82-.01-7.63-.01-11.45ZM180.747,54.886c-.03.17-.06.26-.06.35,0,4.12-.01,8.25.02,12.38,0,.22.24.48.44.64.9.73,1.87,1.39,2.73,2.16.37.32.63.43,1.1.28,3.41-1.13,6.82-2.23,10.23-3.34.59-.19,1.17-.39,1.83-.61-3.7-6.43-9.11-10.33-16.29-11.86ZM180.747,54.886c-.03.17-.06.26-.06.35,0,4.12-.01,8.25.02,12.38,0,.22.24.48.44.64.9.73,1.87,1.39,2.73,2.16.37.32.63.43,1.1.28,3.41-1.13,6.82-2.23,10.23-3.34.59-.19,1.17-.39,1.83-.61-3.7-6.43-9.11-10.33-16.29-11.86ZM172.027,55.656v-.75c-7.15,1.55-12.47,5.43-16.13,11.73.17.08.22.12.28.14,3.8,1.24,7.59,2.48,11.39,3.69.2.06.53-.08.73-.22,1.07-.74,2.09-1.54,3.18-2.23.39-.25.56-.45.56-.91-.02-3.82-.01-7.63-.01-11.45ZM172.027,55.656v-.75c-7.15,1.55-12.47,5.43-16.13,11.73.17.08.22.12.28.14,3.8,1.24,7.59,2.48,11.39,3.69.2.06.53-.08.73-.22,1.07-.74,2.09-1.54,3.18-2.23.39-.25.56-.45.56-.91-.02-3.82-.01-7.63-.01-11.45ZM180.747,54.886c-.03.17-.06.26-.06.35,0,4.12-.01,8.25.02,12.38,0,.22.24.48.44.64.9.73,1.87,1.39,2.73,2.16.37.32.63.43,1.1.28,3.41-1.13,6.82-2.23,10.23-3.34.59-.19,1.17-.39,1.83-.61-3.7-6.43-9.11-10.33-16.29-11.86ZM180.747,54.886c-.03.17-.06.26-.06.35,0,4.12-.01,8.25.02,12.38,0,.22.24.48.44.64.9.73,1.87,1.39,2.73,2.16.37.32.63.43,1.1.28,3.41-1.13,6.82-2.23,10.23-3.34.59-.19,1.17-.39,1.83-.61-3.7-6.43-9.11-10.33-16.29-11.86ZM172.027,55.656v-.75c-7.15,1.55-12.47,5.43-16.13,11.73.17.08.22.12.28.14,3.8,1.24,7.59,2.48,11.39,3.69.2.06.53-.08.73-.22,1.07-.74,2.09-1.54,3.18-2.23.39-.25.56-.45.56-.91-.02-3.82-.01-7.63-.01-11.45ZM172.027,55.656v-.75c-7.15,1.55-12.47,5.43-16.13,11.73.17.08.22.12.28.14,3.8,1.24,7.59,2.48,11.39,3.69.2.06.53-.08.73-.22,1.07-.74,2.09-1.54,3.18-2.23.39-.25.56-.45.56-.91-.02-3.82-.01-7.63-.01-11.45ZM180.747,54.886c-.03.17-.06.26-.06.35,0,4.12-.01,8.25.02,12.38,0,.22.24.48.44.64.9.73,1.87,1.39,2.73,2.16.37.32.63.43,1.1.28,3.41-1.13,6.82-2.23,10.23-3.34.59-.19,1.17-.39,1.83-.61-3.7-6.43-9.11-10.33-16.29-11.86ZM180.747,54.886c-.03.17-.06.26-.06.35,0,4.12-.01,8.25.02,12.38,0,.22.24.48.44.64.9.73,1.87,1.39,2.73,2.16.37.32.63.43,1.1.28,3.41-1.13,6.82-2.23,10.23-3.34.59-.19,1.17-.39,1.83-.61-3.7-6.43-9.11-10.33-16.29-11.86ZM172.027,55.656v-.75c-7.15,1.55-12.47,5.43-16.13,11.73.17.08.22.12.28.14,3.8,1.24,7.59,2.48,11.39,3.69.2.06.53-.08.73-.22,1.07-.74,2.09-1.54,3.18-2.23.39-.25.56-.45.56-.91-.02-3.82-.01-7.63-.01-11.45ZM172.027,55.656v-.75c-7.15,1.55-12.47,5.43-16.13,11.73.17.08.22.12.28.14,3.8,1.24,7.59,2.48,11.39,3.69.2.06.53-.08.73-.22,1.07-.74,2.09-1.54,3.18-2.23.39-.25.56-.45.56-.91-.02-3.82-.01-7.63-.01-11.45ZM180.747,54.886c-.03.17-.06.26-.06.35,0,4.12-.01,8.25.02,12.38,0,.22.24.48.44.64.9.73,1.87,1.39,2.73,2.16.37.32.63.43,1.1.28,3.41-1.13,6.82-2.23,10.23-3.34.59-.19,1.17-.39,1.83-.61-3.7-6.43-9.11-10.33-16.29-11.86ZM180.747,54.886c-.03.17-.06.26-.06.35,0,4.12-.01,8.25.02,12.38,0,.22.24.48.44.64.9.73,1.87,1.39,2.73,2.16.37.32.63.43,1.1.28,3.41-1.13,6.82-2.23,10.23-3.34.59-.19,1.17-.39,1.83-.61-3.7-6.43-9.11-10.33-16.29-11.86ZM172.027,55.656v-.75c-7.15,1.55-12.47,5.43-16.13,11.73.17.08.22.12.28.14,3.8,1.24,7.59,2.48,11.39,3.69.2.06.53-.08.73-.22,1.07-.74,2.09-1.54,3.18-2.23.39-.25.56-.45.56-.91-.02-3.82-.01-7.63-.01-11.45ZM172.027,55.656v-.75c-7.15,1.55-12.47,5.43-16.13,11.73.17.08.22.12.28.14,3.8,1.24,7.59,2.48,11.39,3.69.2.06.53-.08.73-.22,1.07-.74,2.09-1.54,3.18-2.23.39-.25.56-.45.56-.91-.02-3.82-.01-7.63-.01-11.45ZM180.747,54.886c-.03.17-.06.26-.06.35,0,4.12-.01,8.25.02,12.38,0,.22.24.48.44.64.9.73,1.87,1.39,2.73,2.16.37.32.63.43,1.1.28,3.41-1.13,6.82-2.23,10.23-3.34.59-.19,1.17-.39,1.83-.61-3.7-6.43-9.11-10.33-16.29-11.86ZM180.747,54.886c-.03.17-.06.26-.06.35,0,4.12-.01,8.25.02,12.38,0,.22.24.48.44.64.9.73,1.87,1.39,2.73,2.16.37.32.63.43,1.1.28,3.41-1.13,6.82-2.23,10.23-3.34.59-.19,1.17-.39,1.83-.61-3.7-6.43-9.11-10.33-16.29-11.86ZM172.027,55.656v-.75c-7.15,1.55-12.47,5.43-16.13,11.73.17.08.22.12.28.14,3.8,1.24,7.59,2.48,11.39,3.69.2.06.53-.08.73-.22,1.07-.74,2.09-1.54,3.18-2.23.39-.25.56-.45.56-.91-.02-3.82-.01-7.63-.01-11.45ZM172.027,55.656v-.75c-7.15,1.55-12.47,5.43-16.13,11.73.17.08.22.12.28.14,3.8,1.24,7.59,2.48,11.39,3.69.2.06.53-.08.73-.22,1.07-.74,2.09-1.54,3.18-2.23.39-.25.56-.45.56-.91-.02-3.82-.01-7.63-.01-11.45ZM180.747,54.886c-.03.17-.06.26-.06.35,0,4.12-.01,8.25.02,12.38,0,.22.24.48.44.64.9.73,1.87,1.39,2.73,2.16.37.32.63.43,1.1.28,3.41-1.13,6.82-2.23,10.23-3.34.59-.19,1.17-.39,1.83-.61-3.7-6.43-9.11-10.33-16.29-11.86ZM180.747,54.886c-.03.17-.06.26-.06.35,0,4.12-.01,8.25.02,12.38,0,.22.24.48.44.64.9.73,1.87,1.39,2.73,2.16.37.32.63.43,1.1.28,3.41-1.13,6.82-2.23,10.23-3.34.59-.19,1.17-.39,1.83-.61-3.7-6.43-9.11-10.33-16.29-11.86ZM172.027,55.656v-.75c-7.15,1.55-12.47,5.43-16.13,11.73.17.08.22.12.28.14,3.8,1.24,7.59,2.48,11.39,3.69.2.06.53-.08.73-.22,1.07-.74,2.09-1.54,3.18-2.23.39-.25.56-.45.56-.91-.02-3.82-.01-7.63-.01-11.45ZM172.027,55.656v-.75c-7.15,1.55-12.47,5.43-16.13,11.73.17.08.22.12.28.14,3.8,1.24,7.59,2.48,11.39,3.69.2.06.53-.08.73-.22,1.07-.74,2.09-1.54,3.18-2.23.39-.25.56-.45.56-.91-.02-3.82-.01-7.63-.01-11.45ZM180.747,54.886c-.03.17-.06.26-.06.35,0,4.12-.01,8.25.02,12.38,0,.22.24.48.44.64.9.73,1.87,1.39,2.73,2.16.37.32.63.43,1.1.28,3.41-1.13,6.82-2.23,10.23-3.34.59-.19,1.17-.39,1.83-.61-3.7-6.43-9.11-10.33-16.29-11.86ZM180.747,54.886c-.03.17-.06.26-.06.35,0,4.12-.01,8.25.02,12.38,0,.22.24.48.44.64.9.73,1.87,1.39,2.73,2.16.37.32.63.43,1.1.28,3.41-1.13,6.82-2.23,10.23-3.34.59-.19,1.17-.39,1.83-.61-3.7-6.43-9.11-10.33-16.29-11.86ZM172.027,55.656v-.75c-7.15,1.55-12.47,5.43-16.13,11.73.17.08.22.12.28.14,3.8,1.24,7.59,2.48,11.39,3.69.2.06.53-.08.73-.22,1.07-.74,2.09-1.54,3.18-2.23.39-.25.56-.45.56-.91-.02-3.82-.01-7.63-.01-11.45ZM172.027,55.656v-.75c-7.15,1.55-12.47,5.43-16.13,11.73.17.08.22.12.28.14,3.8,1.24,7.59,2.48,11.39,3.69.2.06.53-.08.73-.22,1.07-.74,2.09-1.54,3.18-2.23.39-.25.56-.45.56-.91-.02-3.82-.01-7.63-.01-11.45ZM180.747,54.886c-.03.17-.06.26-.06.35,0,4.12-.01,8.25.02,12.38,0,.22.24.48.44.64.9.73,1.87,1.39,2.73,2.16.37.32.63.43,1.1.28,3.41-1.13,6.82-2.23,10.23-3.34.59-.19,1.17-.39,1.83-.61-3.7-6.43-9.11-10.33-16.29-11.86ZM180.747,54.886c-.03.17-.06.26-.06.35,0,4.12-.01,8.25.02,12.38,0,.22.24.48.44.64.9.73,1.87,1.39,2.73,2.16.37.32.63.43,1.1.28,3.41-1.13,6.82-2.23,10.23-3.34.59-.19,1.17-.39,1.83-.61-3.7-6.43-9.11-10.33-16.29-11.86ZM172.027,55.656v-.75c-7.15,1.55-12.47,5.43-16.13,11.73.17.08.22.12.28.14,3.8,1.24,7.59,2.48,11.39,3.69.2.06.53-.08.73-.22,1.07-.74,2.09-1.54,3.18-2.23.39-.25.56-.45.56-.91-.02-3.82-.01-7.63-.01-11.45ZM172.027,55.656v-.75c-7.15,1.55-12.47,5.43-16.13,11.73.17.08.22.12.28.14,3.8,1.24,7.59,2.48,11.39,3.69.2.06.53-.08.73-.22,1.07-.74,2.09-1.54,3.18-2.23.39-.25.56-.45.56-.91-.02-3.82-.01-7.63-.01-11.45ZM180.747,54.886c-.03.17-.06.26-.06.35,0,4.12-.01,8.25.02,12.38,0,.22.24.48.44.64.9.73,1.87,1.39,2.73,2.16.37.32.63.43,1.1.28,3.41-1.13,6.82-2.23,10.23-3.34.59-.19,1.17-.39,1.83-.61-3.7-6.43-9.11-10.33-16.29-11.86ZM180.747,54.886c-.03.17-.06.26-.06.35,0,4.12-.01,8.25.02,12.38,0,.22.24.48.44.64.9.73,1.87,1.39,2.73,2.16.37.32.63.43,1.1.28,3.41-1.13,6.82-2.23,10.23-3.34.59-.19,1.17-.39,1.83-.61-3.7-6.43-9.11-10.33-16.29-11.86ZM172.027,55.656v-.75c-7.15,1.55-12.47,5.43-16.13,11.73.17.08.22.12.28.14,3.8,1.24,7.59,2.48,11.39,3.69.2.06.53-.08.73-.22,1.07-.74,2.09-1.54,3.18-2.23.39-.25.56-.45.56-.91-.02-3.82-.01-7.63-.01-11.45Z"/>
        <path class="cls-1"
              d="M242.977,10.336c-2.16-.59-4.28-1.31-6.47-1.79-15.7-3.42-31.76-5.14-47.88-6.47C166.317.236,143.957-.494,121.527.346c-18.9.71-37.68,2.22-56.23,5.31-7.17,1.19-14.27,2.63-20.94,5.22-2.21.86-3.38,2.14-3.15,4.1.43,3.56.61,7.17,1.51,10.65,3.63,14.08,9.13,31.37,8.13,53.37-.79,17.28-3.79,43.74-5.32,57.52-.42,3.76-.73,6.58-.86,8.01.04.01.07.02.11.02,13.88,2.9,28.08,5.26,42.42,7.03,15.24,1.9,30.64,3.12,45.96,3.64,1.64.06,3.29.1,4.94.14.83.02,1.67.04,2.5.05,1,.03,2,.04,3,.05.29,0,.59.01.89.01s.6.01.9.01h.02c.31,0,.61.01.92.01,19.72.14,39.21-.93,57.99-3.33,5.3-.68,10.54-1.46,15.71-2.35,1.88-11.8,4.98-23.14,9.34-34.02,1.13-2.84,2.35-5.65,3.66-8.43,1.66-3.54,3.47-7.03,5.41-10.46-.18-2.74-.32-5.35-.43-7.78-2.67,3.85-5.1,7.82-7.27,11.94-2.02,3.86-3.82,7.84-5.36,11.95-2.05,5.43-3.66,11.09-4.81,17-.04.23-.18.44-.37.87-2.2-1.9-1.35-4.48-1.84-6.67.87-4.48,1.74-8.95,2.62-13.43.37-1.92.74-3.85,1.12-5.77.86-2.29,1.67-4.61,2.53-6.9.56-1.53,1.15-3.05,1.77-4.55,3.28-7.95,7.09-15.54,11.61-22.62.4-13.68,1.67-29.06,4.9-43.11,1.08-4.69,1.78-9.44,2.68-14.16.33-1.74-.61-2.78-2.61-3.33ZM138.097,118.626c-.83,3.56-1.66,7.08-2.51,10.71-1.48-.32-2.85-.61-4.26-.92-.72,1-1.48,1.96-2.12,3-.19.31-.19.92-.02,1.25.51,1,1.15,1.94,1.83,3.05-3.68,2.28-7.29,4.53-11.01,6.84-.63-1-1.28-1.92-1.82-2.9-.37-.69-.79-.8-1.54-.67-3.32.56-3.32.54-4.13,3.93-.05.24-.15.46-.3.87-4.13-.97-8.25-1.93-12.54-2.93.27-1.23.61-2.31.71-3.41.04-.49-.26-1.17-.63-1.51-.79-.72-1.73-1.28-2.66-1.94-1.21.72-2.42,1.45-3.79,2.27-2.28-3.68-4.53-7.29-6.83-11,1.01-.63,2.02-1.16,2.87-1.86.39-.32.67-1,.69-1.52.11-2.51-1.02-3.99-3.67-4.07-.32-.01-.64-.17-1.14-.31.97-4.15,1.92-8.25,2.92-12.54,1.15.24,2.22.56,3.32.66.49.05,1.14-.21,1.53-.56,2.4-2.15,1.75-4.28-.43-6.38,3.79-2.36,7.41-4.61,10.94-6.81,1.7.82,1.19,3.39,3.57,3.46,3.3.1,4.17-1.91,4.24-4.88,4.35,1.01,8.48,1.97,12.78,2.98-.28,1.2-.61,2.32-.77,3.46-.06.42.14,1.05.45,1.32.89.76,1.89,1.39,2.89,2.09,1.22-.74,2.43-1.48,3.78-2.31,2.26,3.65,4.5,7.27,6.83,11.01-1.04.67-2.07,1.23-2.97,1.94-.35.28-.58.89-.61,1.36-.15,2.77,1.22,4.16,3.98,4.23.13.01.26.04.42.08.12.04.27.08.44.12-.15.63-.29,1.26-.44,1.89ZM212.967,84.606c-.63,3.26-1.62,6.39-3.04,9.39-.01.02-.02.04-.03.06-.18.37-.4.49-.83.45-1.12-.09-2.24-.13-3.37-.2v.01c-1.14-.06-2.28-.14-3.43-.16-.23,0-.54.17-.69.36-.6.76-1.17,1.54-1.69,2.35-.14.21-.18.59-.1.83.79,2.12,1.6,4.24,2.44,6.35.14.39.09.61-.19.89-.01.01-.02.02-.03.03-2.4,2.26-5.03,4.19-7.92,5.78-.38.21-.62.19-.94-.08-1.72-1.41-3.46-2.79-5.18-4.21-.35-.28-.64-.37-1.08-.19-.81.33-1.65.6-2.49.83-.45.13-.65.35-.77.79-.54,2.13-1.13,4.25-1.67,6.39-.12.47-.34.63-.8.69-3.23.42-6.45.42-9.68.04-.47-.06-.68-.26-.79-.72-.55-2.13-1.15-4.24-1.7-6.37-.11-.42-.28-.63-.72-.74-.91-.24-1.81-.53-2.69-.87-.38-.15-.61-.07-.89.17-1.72,1.41-3.46,2.79-5.17,4.22-.37.31-.65.32-1.06.09-2.85-1.57-5.47-3.45-7.84-5.67-.33-.3-.41-.54-.24-.97.82-2.07,1.58-4.15,2.39-6.22.15-.38.14-.64-.13-.97-.59-.73-1.14-1.5-1.66-2.28-.23-.34-.46-.47-.88-.45-1.33.08-2.67.15-4,.21-.83.05-1.67.09-2.5.14-.08,0-.15.01-.23.01-.39.03-.59-.08-.77-.44-.79-1.67-1.46-3.39-2-5.14-.4-1.27-.73-2.57-.99-3.88-.02-.1-.04-.19-.06-.29-.09-.45.04-.69.42-.93.21-.13.42-.27.63-.41,1-.64,2-1.29,3-1.94.65-.43,1.3-.85,1.96-1.27.33-.21.45-.42.44-.81-.04-.97-.04-1.93,0-2.9.02-.42-.14-.64-.48-.86-.64-.41-1.28-.82-1.92-1.23-1-.65-2-1.3-3-1.93-.21-.14-.42-.28-.63-.41-.39-.24-.54-.46-.44-.96.28-1.44.64-2.85,1.07-4.23.53-1.69,1.17-3.34,1.92-4.96.21-.46.45-.6.97-.57.04,0,.07,0,.11.01,2.17.14,4.36.25,6.55.33.23.01.55-.14.7-.33.64-.81,1.26-1.64,1.82-2.5.13-.21.13-.59.04-.84-.76-2.04-1.55-4.07-2.36-6.09-.19-.48-.16-.78.25-1.16,2.35-2.18,4.92-4.04,7.71-5.61.5-.28.82-.2,1.23.14,1.66,1.38,3.35,2.71,5.01,4.08.35.29.65.37,1.09.2.83-.33,1.69-.59,2.56-.84.39-.11.58-.3.69-.69.55-2.16,1.14-4.3,1.69-6.45.12-.46.32-.63.8-.69,3.23-.42,6.45-.4,9.68-.01.47.06.68.23.8.69.56,2.15,1.16,4.28,1.72,6.43.11.43.29.64.72.75.84.23,1.68.5,2.5.8.4.15.68.13,1.03-.15,1.72-1.44,3.48-2.84,5.21-4.26.3-.25.52-.3.89-.11,2.91,1.59,5.58,3.52,8,5.79.3.28.38.51.22.92-.84,2.1-1.62,4.23-2.45,6.34-.13.35-.11.59.13.9.59.74,1.1,1.54,1.69,2.27.16.2.5.36.75.35,2.24-.09,4.49-.21,6.73-.35.43-.02.69.08.88.5,1.42,3.02,2.44,6.17,3.07,9.45.08.42-.13.56-.4.73-1.88,1.23-3.75,2.46-5.65,3.67-.36.23-.5.47-.48.92.05.89.05,1.8.01,2.69-.02.4.12.61.44.81,1.91,1.22,3.8,2.46,5.71,3.68.32.21.47.4.39.81Z"/>
        <path class="cls-1"
              d="M245.027,144.526c-.02,0-.03.01-.05.01-6.46,1.64-13.06,3.09-19.78,4.35.03-.33.06-.66.1-.98.58-4.84,2.44-8.93,5.45-12.36q0-.01.01-.01c.89-.63,1.91-1.15,3.09-1.54,2-1,4.16.16,5,0,0,0,0-1.71-.79-3.56-.07-.14-.14-.29-.21-.44-2-3-5.33-3.15-8-5,.26-.53.7-.95,1.24-1.28,1.33-.82,3.26-1.09,4.61-1.09.16,0,.31,0,.45.01.16.01.32.02.48.03,1.53.12,3.03.49,4.49,1.13.36,2.74.75,5.37,1.16,7.84.86,5.26,1.79,9.77,2.75,12.89Z"/>
        <path class="cls-1"
              d="M166.617,83.686c-.84,1.16-1.68,2.33-2.53,3.49-1.56,2.16-3.13,4.32-4.7,6.48-.03.03-.07.05-.17.14-2.08-2.34-3.62-4.84-4.65-7.52-1.33-3.47-1.79-7.24-1.39-11.32.28.08.49.12.69.19,3.62,1.18,7.25,2.36,10.88,3.52.44.15.57.38.7.83.33,1.18.8,2.32,1.18,3.48.07.22.11.55-.01.71Z"/>
        <path class="cls-1"
              d="M182.007,77.986c-.01,1.67-.74,3.19-1.9,4.23-1.03.94-2.38,1.5-3.86,1.49-2.86-.03-5.22-2.13-5.62-4.87-.06-.3-.08-.6-.08-.91.02-3.13,2.58-5.67,5.73-5.67,3.18,0,5.73,2.56,5.73,5.73Z"/>
        <path class="cls-1"
              d="M195.577,91.336c-.24.36-.5.7-.77,1.05-.47.61-.97,1.21-1.51,1.8-.89-1.23-1.77-2.43-2.64-3.63-.91-1.25-1.81-2.5-2.72-3.74-.19-.27-.39-.53-.58-.8-.58-.81-1.16-1.61-1.76-2.41-.22-.29-.2-.51-.07-.84.39-1,.71-2.02,1.09-3.03.09-.23.27-.54.48-.61,4.08-1.35,8.18-2.67,12.28-4,.06-.02.13-.02.31-.05.62,6.08-.76,11.46-4.11,16.26Z"/>
        <path class="cls-1"
              d="M269.227,287.346c-8.77-11.53-11.78-19.59-13.07-30.54,4.51,4.9,8.6,9.41,13.32,14.57-1.79-8.56-3.97-16.01-4.83-23.6-1.83-16.76-2.87-33.59-4.48-50.39-.67-7.09-1.52-14.17-2.74-21.16.59-.31,1.19-.64,1.78-.97,3.55-1.99,7-4.57,10.16-7.56,3.29-3.1,3.25-8.79.22-12.47-1.02-1.24-2.34-2.32-3.65-2.73-2.49-.78-5.1-1.61-7.62-1.37-2.34.21-4.68.44-7.02.71-1.07.11-2.14.24-3.21.37-4.35.52-8.69,1.15-13.01,1.92-3.42.61-6.84,1.13-10.25,1.62-1.92.27-3.83.53-5.74.79-4.1.53-8.2,1.04-12.3,1.59-4.66.61-9.32,1.28-13.99,2.09-.79.14-1.59.27-2.38.4-.36.06-.73.12-1.1.18-1.16.19-2.32.37-3.48.54-1.76.27-3.53.52-5.3.75-.68.1-1.36.18-2.05.26-.89.12-1.79.23-2.68.32-1.37.17-2.74.32-4.1.45-.68.08-1.36.14-2.03.2-.64.07-1.29.13-1.93.18-1.05.1-2.09.18-3.13.26-1.87.15-3.75.27-5.62.38-1.41.08-2.82.15-4.23.21-.9.04-1.8.08-2.7.1-.76.04-1.52.06-2.28.07-.06.01-.11.01-.16,0-.02.01-.04.01-.05,0q-.01.01-.02,0-.01.01-.02,0c-.01.01-.02,0-.02,0q-.01.01-.02,0h-.01c-.48.02-.95.03-1.43.03-.65.02-1.3.03-1.95.03-.3.01-.61.02-.91.01-.14.01-.28.01-.41.01-.15.01-.3.01-.45,0-.08.01-.18.01-.27,0h-.01q-.01.01-.02,0-.01.01-.02,0-.01.01-.02,0-.01.01-.02,0c-.02.01-.03.01-.04,0-.01.01-.03.01-.04,0-.01.01-.03.01-.04,0-.01.01-.02,0-.02,0q-.01.01-.02,0c-.01.01-.02,0-.02,0q-.01.01-.02,0c-.01.01-.02,0-.02,0q-.01.01-.02,0c-.01.01-.02,0-.02,0q-.01.01-.02,0-.01.01-.02,0h-.01q-.01.01-.02,0h-.01q-.01.01-.02,0-.01.01-.02,0c-1,.01-2,.01-3,0-.37,0-.74,0-1.11-.01h-.36c-.7-.01-1.39-.02-2.09-.04-.98-.01-1.95-.04-2.92-.07-.9-.03-1.8-.06-2.7-.1-3.75-.14-7.49-.37-11.24-.67-17.37-1.4-34.58-2.8-51.73-6.4-1.82-.36-3.63-.77-5.45-1.2-6.67-1.58-13.35-3.13-20.04-4.57-1.63-.35-3.25-.7-4.88-1.03-2.67-.56-5.35-1.1-8.03-1.61-3.17-.61-6.6-.25-9.73.75-4.34,1.38-5.4,7.89-2.08,12.04,1.97,2.46,4.27,4.57,6.63,6.3,1.69,1.24,3.41,2.4,5.14,3.48-.59,1.82-1.15,3.65-1.68,5.48-4.94,16.97-8.74,34.3-16.19,50.81,1.4-1.21,3.19-2.22,4.23-3.69,5.26-7.62,10.56-15.22,15.43-23.09,3.91-6.31,7.02-13.11,10.85-19.49.55-.91,1.1-1.8,1.68-2.67,2.68,1.14,5.38,2.2,8.09,3.19-5.86,8.51-11.6,17.1-17.57,25.52-3.41,4.76-7.09,9.42-11.32,13.39-3.15,2.98-4.3,6.2-4.51,10.17-.47,8.42-.79,16.87-1.47,25.25-1.11,13.29-2.47,26.5-3.69,39.75-.11,1.22-.14,2.44-.25,4.41,5.19-5.41,9.88-10.25,14.58-15.12.39.25.75.5,1.14.76-.75,1.86-1.18,3.93-2.29,5.55-4.66,6.84-9.1,13.86-14.36,20.23-8.92,10.74-14.04,22.52-12.36,36.67.4,3.12.83,6.3,1.94,9.2,2.15,5.59,4.83,10.96,7.3,16.55,4.69-9.38,9.6-19.27,14.54-29.15,1.47,14.43-1.82,27.29-12.17,38.07,12.46-1.01,24.24-10.78,25.96-22.42,2.36-16.26,3.94-32.63,5.98-48.92,1.18-9.63,2.58-19.23,3.9-28.83.11-.86.18-1.68.25-2.58-6.12,1.79-8.77.79-12.46-5.08-6.37-10.14-9.24-21.45-10.56-33.24-.47-3.93-.75-7.98-.47-11.96.47-5.91,2.62-8.56,6.27-8.95,4.23-.46,9.85,2.87,10.92,7.41,1.69,7.2,2.72,14.58,3.87,21.92.97,6.34,1.65,12.71,3.33,19.16,1.72-8.38,3.44-16.76,5.19-25.14.47-2.4.65-4.91,1.54-7.13,3.76-9.63,4.34-19.66,4.41-29.86.04-7.54.25-15.09,1.22-22.55,27.91,9.14,55.9,12.92,79.32,12.91v265.94c0,.83.67,1.5,1.5,1.5s1.5-.67,1.5-1.5V197.966c30.61-.44,55.21-3.27,79.56-9.43,2.81,8.73,5.64,17.46,8.47,26.19-.39.14-.75.28-1.11.43-2.51-4.87-5.01-9.74-7.56-14.61-.39.1-.82.25-1.21.35,1.97,10.1-.54,20.31,2.93,30.62,3.8,11.28,5.45,23.28,8.28,36.1.85-6.59,1.5-12.18,2.29-17.76.86-6.09,1.75-12.14,2.75-18.23.68-4.19,2.94-7.38,6.84-9.27,5.09-2.51,9.64-.9,10.39,4.65.79,5.73.57,11.71-.07,17.44-1.22,11.03-4.26,21.6-10.32,31.09-2.32,3.61-5.08,6.62-10.56,5.9.68,6.38,1.4,12.43,1.93,18.48,1.44,15.97,2.3,31.98,4.44,47.85.9,6.59,3.55,13.28,6.88,19.12,5.26,9.17,15.61,12.25,26.46,8.81-8.12-7.52-11.88-16.83-12.89-27.5,4.66,5.58,9.06,10.95,14.22,17.19,4.23-8.85,5.94-16.73,7.2-24.71,3.04-19.63-1.15-37.32-13.29-53.33ZM227.937,187.286c1.38-.36,2.77-.75,4.14-1.15,1.95,2.76,3.69,5.67,5.17,8.78.47,1.04.97,2.08,1.4,3.15-3.5-3.5-7.09-7.12-10.71-10.78ZM238.647,198.106c.07.22-.07.43,0,0h0Z"/>
        <path class="cls-1"
              d="M351.967,47.646c-8.12,5.88-7.99,4.49-16.12,10.35-2.71,1.95-7.81,4.99-10.31,7.2-3.17,2.8-6.8,4.2-10.92,4.27-6.83.12-13.66.05-20.49.04-.75,0-1.49-.11-2.24-.13-.13,0-.26.17-.59.4,4.4,2.29,8.72,4.55,13.32,6.95-.88.71-1.43,1.21-2.02,1.63-9.82,6.95-20.66,15.86-30.44,22.88-1.79,1.28-3.58,1.76-5.77,1.84-4.91.2-9.81.74-14.71,1.17-.47.04-.92.26-1.89.54.9.42,1.37.61,1.81.86,1.51.86,3.71,1.93,4.48,2.64s3.81,3.28.77,5.71c-2,1.6-7.41,7.99-9,10-1.11,1.39-4.44.91-6.04.12-.23-.11-.46-.22-.69-.32-1.16-8.69-2.11-18.37-2.68-26.9,3.27-5.77,6.92-11.39,10.98-16.86,7.01-9.45,16.63-15.87,26.98-21.16,3.92-2,8.15-3.41,12.24-5.09.58-.24,1.17-.45,1.7-.9-5.49-.05-10.68,1.24-15.76,3.13-9.37,3.47-16.46,10.06-23.24,17.04-4.94,5.08-9.4,10.43-13.33,16.06-.1-2.63-.16-5.03-.16-7.12,0-3.51.04-7.22.16-11.06,5.85-9.2,12.92-17.54,21.58-24.72,21-17.41,45.23-23.4,71.97-19.28,6.31.98,12.48,3.01,18.62,4.87,3.36,1.01,5.37,3.64,5.8,7.2.44,3.65-1.09,6.53-4.01,8.64Z"/>
    </g>
</svg>