<?xml version="1.0" encoding="UTF-8"?>
<svg id="Ebene_1" xmlns="http://www.w3.org/2000/svg" viewBox="0 0 23.503 31.6">
    <defs>
        <style>.cls-1{fill:#010101;stroke-width:0px;}</style>
    </defs>
    <g id="Ebene_2-2">
        <g id="Ebene_1-2">
            <path class="cls-1"
                  d="M23.382,22.878c-.05-.094-.09-.195-.161-.272-.908-1.007-.954-2.106-.536-3.361.379-1.137.19-2.217-.867-3.001-.452-.333-.582-.81-.492-1.352.019-.125.04-.253.082-.372.657-1.861.253-3.386-1.385-4.567-.609-.438-.687-1.091-.578-1.823.412-2.787-1.743-5.283-4.489-5.249q-1.053.013-1.886-.592c-.508-.368-1.103-.571-1.725-.611v.956c.73.04,1.411.339,1.81.858-.079.201-.155.393-.301.755.45-.17.714-.278.983-.371.32-.112,3.478-.063,3.795,2.321.054.414.023.842.004,1.262-.056,1.304.39,2.355,1.505,3.087.21.138.416.289.615.446.959.747,1.227,1.408.837,2.545-.491,1.42-.249,2.553.992,3.462.59.431.726,1.063.53,1.76-.08.285-.174.565-.278.842-.31.824-.175,1.544.373,2.248,1.367,1.756-.703,2.846-.908,3.055-.171.174-.696,1.451-.83,1.659-.237.366-1.375,1.083-1.452,1.037.111-.289.49-1.212.6-1.501.264-.688.207-1.361-.27-1.909-.594-.682-.333.156.156-.545.45-.645.596-1.388.163-2.089-.513-.833-.548-1.637-.182-2.531.295-.722.297-1.515-.318-2.066-.865-.776-.461-1.79-.356-2.832.082-.814-.588-2.426-1.34-2.872-1.54-.913-2.746-.923-2.298-2.682.175-.691.166-.632.191-1.34.031-.829-.354-1.258-.957-1.915.351,1.723.525,2.248-.766,3.255-.837.654-1.532.575-2.298.888v.837c1.149-.191,2.217-.314,3.064-1.34-.161,1.032,1.724,2.106,1.724,2.106,0,0,.984.714,1.149.957.791,1.164.057,3.33-.575,4.596-.777,1.56-1.922,3.232-2.822,4.73-.19.315-.502.573-.798.806-.555.438-1.141.631-1.741.561v.481c1.224.247,2.06-.386,3.952-2.2.532.58.491,1.09.196,1.837-.109.274-.773,1.035-.277,1.765.528.774.657,1.577.346,2.465-.21.605-.05,1.157.283,1.685.58.919.538,1.829-.101,2.708.542.07,1.028-.109,1.385-.567.27-.351.549-.711.729-1.109.389-.859,1.032-1.429,1.858-1.819.934-.444,1.343-1.277,1.793-2.223.219-.464,2.544-1.616,1.872-2.857ZM18.797,26.726c-.538.956-1.209,1.836-1.855,2.796-.203-.41-.467-.766-.557-1.162-.105-.467-.203-1.019-.05-1.442.259-.708.383-1.201-.011-1.805-.543-.839-.73-1.049-.208-1.867.648-1.015.93-1.217.415-2.282-.532-1.101-.22-2.229.229-3.296.343-.81.996-1.926,1.176-2.804.036-.184.111-.356.111-.546.075,0,.044-.023.119-.023,0,.406.027.814-.008,1.218-.05.592-.46,1.248.01,1.643.628.529.687.898.383,1.677-.123.314-.337.624-.346.942-.012.389.027.885.253,1.155.733.871.923,1.71.26,2.702-.438.659-.648-.081-.139.551.657.812.693,1.697.218,2.543Z"/>
            <path class="cls-1"
                  d="M13.311,18.754c-.297-.118-.593-.237-.89-.357-.326-.133-.649-.191-.998-.062-.025.01-.052.015-.079.014v.54h1.025c.253-.006.508-.002.811-.002-.085.039-.139.079-.195.085-.208.025-.419.037-.628.06-.301.035-.6.079-.898.116-.038.008-.076.014-.114.018v.942c.61.004,1.137-.187,1.549-.707.129-.164.297-.297.452-.44.106-.099.1-.153-.035-.207Z"/>
            <path class="cls-1"
                  d="M17.333,12.9c-.01-.04-.33-.06-.39-.08-.33-1.15-1.06-1.9-2.29-2.05-1.35-.17-2.29.46-2.87,1.66-.29-.08-.58-.12-.87-.13V.07c0-.03-.03-.07-.07-.07s-.07.04-.07.07v12.22c-.31,0-.63.04-.95.13-.02-.06-.05-.11-.07-.15-.68-1.46-2.54-1.99-3.9-1.11-.56.37-.94.87-1.12,1.51-.03.13-.38.19-.54.16v.46c.13-.01.46.09.45.2-.01.07,0,.15.01.23.22,1.41,1.4,2.36,2.85,2.29,1.29-.06,2.41-1.15,2.48-2.42.02-.29-.02-.59-.03-.9.27-.07.54-.11.82-.12v18.96c0,.04.03.07.07.07s.07-.03.07-.07V12.58c.26,0,.52.04.78.11-.03.22-.06.41-.07.6,0,.19.02.39.05.59.23,1.26,1.38,2.16,2.71,2.13,1.29-.02,2.38-.98,2.58-2.24.03-.16.11-.39.37-.48,0-.13.02-.27,0-.39ZM5.333,12.39c.47-.73,1.1-1.19,1.93-1.22.91-.03,1.59.44,2.1,1.22-1.34-1.04-2.68-1.04-4.03,0ZM12.293,12.42c.2-.57.92-1.15,1.87-1.21.91-.06,1.59.38,2.11,1.14-1.34-.97-2.67-.98-3.98.07Z"/>
        </g>
        <g id="Ebene_3">
            <path class="cls-1"
                  d="M2.9,22.363c.019.025.042.05.062.077.274-.149.55-.295.842-.452.05,1.228,0,2.506,1.278,3.332v-1.282c.027-.01.05-.023.077-.033.336,1.483,1.211,2.493,2.635,3.093-.089-.342-.166-.643-.243-.942.025-.011.048-.023.069-.033.079.114.151.232.234.34.628.824,1.502,1.265,2.466,1.541.012.004.025.006.037.006v-7.876c-.228.002-.455.039-.672.108-.405.127-.813.243-1.228.336-.442.097-.618-.01-.771-.444-.054-.16-.085-.328-.12-.481.05-.444.288-.765.655-.929.693-.315,1.398-.575,2.137-.585v-.871c-.156-.012-.309-.027-.463-.018-.485.031-.971.183-1.444.322-.741.218-1.429.516-1.857,1.232-.141.232-.396.396-.633.624-.903-1.477-1.507-3.027-2.027-4.647-.093.444-.234.882-.274,1.332-.108,1.253-.178,2.514-.253,3.769-.05.85-.181,1.686-.508,2.481Z"/>
            <path class="cls-1"
                  d="M.898,11.446c.105-.089.236-.164.315-.274.39-.564.782-1.131,1.145-1.714.29-.469.521-.973.805-1.446.844-1.411,2.118-2.13,3.734-2.272,1.072-.091,2.116.06,3.145.369.102.029.209.04.315.033V.014c-1.081-.023-2.162.169-3.242.578-.019.008-.031.025-.093.073.915-.021,1.774.066,2.594.4-1.209-.18-2.398-.172-3.558.284-1.194.47-1.893,1.409-2.432,2.503.247-.168.491-.334.74-.504-.419.581-.927,1.143-1.265,1.792-.415.803-.747,1.665-.999,2.535-.368,1.261-.65,2.545-1.204,3.771Z"/>
            <path class="cls-1"
                  d="M.709,22.325l1.077-2.165c.109,1.071-.134,2.026-.903,2.827.926-.074,1.799-.802,1.926-1.665.177-1.206.293-2.421.444-3.631.089-.714.193-1.426.29-2.139.008-.061.013-.123.02-.191-.456.134-.652.061-.926-.375-.473-.754-.685-1.594-.784-2.466-.033-.294-.056-.594-.033-.887.034-.439.193-.636.465-.666.311-.035.73.213.809.549.125.535.203,1.082.286,1.626.072.471.123.944.247,1.421.129-.622.257-1.243.386-1.865.036-.177.05-.362.114-.528.28-.716.324-1.459.328-2.217.005-.962.047-1.925.349-2.857l-.075-.057c-.163.165-.353.31-.484.497-.562.797-1.097,1.614-1.662,2.408-.251.353-.525.699-.838.995-.233.22-.318.46-.335.754-.035.625-.058,1.251-.11,1.875-.081.983-.182,1.965-.273,2.947-.008.091-.011.183-.019.327l1.083-1.12.084.057c-.055.138-.088.29-.169.41-.345.508-.676,1.03-1.067,1.502-.66.798-1.04,1.672-.916,2.722.027.23.06.467.142.681.16.415.358.815.543,1.231Z"/>
        </g>
    </g>
</svg>